<svg viewBox="-2.4 -2.4 28.80 28.80" fill="none" xmlns="http://www.w3.org/2000/svg"><g id="SVGRepo_bgCarrier" stroke-width="0"><path transform="translate(-2.4, -2.4), scale(0.8999999999999999)" d="M16,31.78152392485312C19.29668179427718,32.26521494265007,22.628145769184457,30.789641247589472,25.271945910769734,28.76173871917009C27.870987149101104,26.768168094910248,29.47550660636871,23.822372862336866,30.452468049384606,20.695891528421832C31.420236494204694,17.598829715069645,32.16472260069576,14.128808472642866,30.75813248811485,11.204792074996739C29.40704466078145,8.396153704480906,25.879371631989745,7.704298653190983,23.336193522894646,5.902595870010087C20.836548415901174,4.131733841067448,19.062009547018604,0.8404311764764272,16.000000000000004,0.7494612889630456C12.929223410877952,0.6582309395465491,10.547625871865964,3.320513384072621,8.34011606698784,5.457074241694434C6.404694576619807,7.3302916517293175,5.1800194085447675,9.656876705922523,4.203298270842742,12.167019257612022C3.1654979197461017,14.834133463387213,1.700602839640334,17.637461236089116,2.5354436118710932,20.37489957154168C3.374675078169351,23.126734968876473,6.3192442160558056,24.443423528856147,8.51438844497979,26.30306040799992C10.932844199437007,28.351877725926528,12.863940973615719,31.321399570426088,16,31.78152392485312" fill="#AD4922" strokewidth="0"></path></g><g id="SVGRepo_tracerCarrier" stroke-linecap="round" stroke-linejoin="round"></g><g id="SVGRepo_iconCarrier"> <path d="M12 7V13" stroke="#ffffff" stroke-width="1.5" stroke-linecap="round"></path> <circle cx="12" cy="16" r="1" fill="#ffffff"></circle> <path d="M7 3.33782C8.47087 2.48697 10.1786 2 12 2C17.5228 2 22 6.47715 22 12C22 17.5228 17.5228 22 12 22C6.47715 22 2 17.5228 2 12C2 10.1786 2.48697 8.47087 3.33782 7" stroke="#ffffff" stroke-width="1.5" stroke-linecap="round"></path> </g></svg>