<svg viewBox="-2.4 -2.4 28.80 28.80" fill="none" xmlns="http://www.w3.org/2000/svg" transform="matrix(-1, 0, 0, 1, 0, 0)"><g id="favicon-svg" stroke-width="0"><path transform="translate(-2.4, -2.4), scale(0.8999999999999999)" d="M16,25.938881504866814C19.00352158962852,25.98202755841336,21.39493089348877,24.08089960703271,23.66193260521529,22.110187360069624C26.952783274165533,19.249439755566154,31.909993488724393,16.802850602705817,31.50382646282157,12.461352781783656C31.079433096724806,7.92503457616998,26.273864290467586,5.068017885812605,21.93693876744442,3.6718196192618695C18.255873124179598,2.486764113258345,14.577726362051626,4.1368573848535934,11.138554963322525,5.905105363078832C7.856685102741599,7.592476846778377,4.082266939142034,9.50333209930799,3.5056633271318045,13.148249187584295C2.9507958989312515,16.655764105371944,6.127782698012421,19.353672748226902,8.609217000132261,21.893952765398986C10.673899911368082,24.007598384276925,13.045577533596136,25.89644076784173,16,25.938881504866814" fill="#E7CEB5" strokewidth="0"></path></g><g id="SVGRepo_tracerCarrier" stroke-linecap="round" stroke-linejoin="round"></g><g id="SVGRepo_iconCarrier"> <path d="M12 9.00006L16 5.00006M12 14.5001L15 11.5001M18.5 8.00006L16.875 9.62506M12 19.5001L13.875 17.6251M19.5 12.0001L15.75 15.7501" stroke="#1C274C" stroke-width="1.5" stroke-linecap="round"></path> <path d="M12 22C16.4183 22 20 18.3541 20 13.8567C20 9.39453 17.4467 4.18759 13.4629 2.32555C12.9986 2.10852 12.4993 2 12 2M12 22C7.58172 22 4 18.3541 4 13.8567C4 12.2707 4.32258 10.5906 4.91731 9M12 22V2M12 2C11.5007 2 11.0014 2.10852 10.5371 2.32555C8.93605 3.07388 7.56606 4.36246 6.5 5.92583" stroke="#1C274C" stroke-width="1.5" stroke-linecap="round"></path> </g>
</svg>