<svg viewBox="-2.4 -2.4 28.80 28.80" fill="none" xmlns="http://www.w3.org/2000/svg"><g id="SVGRepo_bgCarrier" stroke-width="0"><path transform="translate(-2.4, -2.4), scale(0.8999999999999999)" d="M16,29.681094149127603C19.358252026788726,29.354496829464946,19.742694097701367,24.512380550299834,22.058370653592284,22.058370653592288C24.233458790832646,19.753347613383873,28.146071498756935,19.07582938799913,28.909886395558715,16C29.78318335525151,12.483293970410116,28.344826070399037,8.752118560200637,26.061350542497763,5.93864945750224C23.520398788901687,2.807944020619207,19.952505199988497,-0.7034191439265387,16.000000000000004,0.09373516403138638C12.131113736665096,0.8740249285649397,12.00410565135012,6.426146676737323,9.315922676943885,9.315922676943883C6.835028457667029,11.982864861376465,1.3793809902157217,12.361808639030649,1.2033685948699713,15.999999999999996C1.028168818806526,19.6213944504629,5.974212031492614,20.902302286510015,8.636304163869461,23.363695836130535C11.104858323945917,25.646142492503795,12.65374577100437,30.006524656838735,16,29.681094149127603" fill="#E7CEB5" strokewidth="0"></path></g><g id="SVGRepo_tracerCarrier" stroke-linecap="round" stroke-linejoin="round"></g><g id="SVGRepo_iconCarrier"> <path d="M9.5 10H14.5M12 12.5L12 7.5" stroke="#1C274C" stroke-width="1.5" stroke-linecap="round"></path> <path d="M5 15.2161C4.35254 13.5622 4 11.8013 4 10.1433C4 5.64588 7.58172 2 12 2C16.4183 2 20 5.64588 20 10.1433C20 14.6055 17.4467 19.8124 13.4629 21.6744C12.5343 22.1085 11.4657 22.1085 10.5371 21.6744C9.26474 21.0797 8.13831 20.1439 7.19438 19" stroke="#1C274C" stroke-width="1.5" stroke-linecap="round"></path> </g></svg>