<svg width="64px" height="64px" viewBox="-2.4 -2.4 28.80 28.80" fill="none" xmlns="http://www.w3.org/2000/svg"><g id="SVGRepo_bgCarrier" stroke-width="0"><path transform="translate(-2.4, -2.4), scale(0.8999999999999999)" d="M16,27.773396956069128C17.91280093624041,27.763459595927436,19.647829636103936,26.93778185385382,21.50911818325092,26.496747708839802C23.94286583087552,25.9200688190485,27.15311118048141,26.73179595487492,28.697780907687893,24.764645328181313C30.210547307591277,22.83812387236646,28.336820239676996,19.964179679948213,28.554499324099684,17.524392206294714C28.763633519770327,15.180377427552617,30.648023045687367,12.9567568198634,29.951854207724853,10.708759634854022C29.25738876330263,8.46626287398707,26.98656433239291,7.066960386422301,24.952851538778802,5.894319670309457C23.11421313137636,4.834159029387568,20.95913296349368,4.739914926438874,18.877984926410058,4.323556156291929C16.881000967895602,3.9240354253518035,14.948737452748894,3.368054926676425,12.91560648403925,3.4861235892791225C10.62062557921557,3.6193984890772573,7.853958240617572,3.3574242125924814,6.3025493876944285,5.0538410609800515C4.718077409524299,6.78641139825848,6.151872623442237,9.757098492843944,5.212763235713,11.908940722446818C4.204003648424626,14.220376970243906,1.0891828732285092,15.361750372087235,0.7154701700542265,17.855877924571804C0.3454475427258323,20.32537821723936,1.4217588352041322,23.113964969414962,3.284689436323763,24.776745176066523C5.150281072946756,26.441900520665538,8.026801602315922,25.980529174358168,10.46075685856055,26.554146021115187C12.328088040782639,26.994225033187885,14.08153813056748,27.783363725822035,16,27.773396956069128" fill="#E7CEB5" strokewidth="0"></path></g><g id="SVGRepo_tracerCarrier" stroke-linecap="round" stroke-linejoin="round"></g><g id="SVGRepo_iconCarrier"> <path d="M9 10H15" stroke="#1C274C" stroke-width="1.5" stroke-linecap="round"></path> <path d="M5 15.2161C4.35254 13.5622 4 11.8013 4 10.1433C4 5.64588 7.58172 2 12 2C16.4183 2 20 5.64588 20 10.1433C20 14.6055 17.4467 19.8124 13.4629 21.6744C12.5343 22.1085 11.4657 22.1085 10.5371 21.6744C9.26474 21.0797 8.13831 20.1439 7.19438 19" stroke="#1C274C" stroke-width="1.5" stroke-linecap="round"></path> </g></svg>